<mxfile host="app.diagrams.net" modified="2023-10-23T14:17:47.498Z" agent="Mozilla/5.0 (Macintosh; Intel Mac OS X 10_15_7) AppleWebKit/605.1.15 (KHTML, like Gecko) Version/16.4 Safari/605.1.15" etag="B1cnEZkPTxdfacaHBIV4" version="22.0.6" type="device">
  <diagram name="Page-1" id="QnltM49iqaONMIQAPlFM">
    <mxGraphModel dx="954" dy="647" grid="1" gridSize="10" guides="1" tooltips="1" connect="1" arrows="1" fold="1" page="1" pageScale="1" pageWidth="827" pageHeight="1169" math="0" shadow="0">
      <root>
        <mxCell id="0" />
        <mxCell id="1" parent="0" />
        <mxCell id="B_8D_iWX-V5mQrey9REb-1" value="" style="rounded=0;whiteSpace=wrap;html=1;" vertex="1" parent="1">
          <mxGeometry x="60" y="80" width="310" height="40" as="geometry" />
        </mxCell>
        <mxCell id="B_8D_iWX-V5mQrey9REb-2" value="Tag" style="rounded=0;whiteSpace=wrap;html=1;" vertex="1" parent="1">
          <mxGeometry x="220" y="80" width="110" height="40" as="geometry" />
        </mxCell>
        <mxCell id="B_8D_iWX-V5mQrey9REb-4" value="Vaddr" style="rounded=0;whiteSpace=wrap;html=1;" vertex="1" parent="1">
          <mxGeometry x="330" y="80" width="200" height="40" as="geometry" />
        </mxCell>
        <mxCell id="B_8D_iWX-V5mQrey9REb-5" value="" style="rounded=0;whiteSpace=wrap;html=1;" vertex="1" parent="1">
          <mxGeometry x="240" y="160" width="270" height="40" as="geometry" />
        </mxCell>
        <mxCell id="B_8D_iWX-V5mQrey9REb-6" value="Range ID" style="rounded=0;whiteSpace=wrap;html=1;" vertex="1" parent="1">
          <mxGeometry x="240" y="160" width="100" height="40" as="geometry" />
        </mxCell>
        <mxCell id="B_8D_iWX-V5mQrey9REb-9" value="Attr" style="rounded=0;whiteSpace=wrap;html=1;" vertex="1" parent="1">
          <mxGeometry x="420" y="160" width="50" height="40" as="geometry" />
        </mxCell>
        <mxCell id="B_8D_iWX-V5mQrey9REb-10" value="Du" style="rounded=0;whiteSpace=wrap;html=1;" vertex="1" parent="1">
          <mxGeometry x="470" y="160" width="40" height="40" as="geometry" />
        </mxCell>
        <mxCell id="B_8D_iWX-V5mQrey9REb-11" value="Capability meta-data" style="rounded=0;whiteSpace=wrap;html=1;" vertex="1" parent="1">
          <mxGeometry x="60" y="80" width="160" height="40" as="geometry" />
        </mxCell>
        <mxCell id="B_8D_iWX-V5mQrey9REb-13" value="DELTA" style="rounded=0;whiteSpace=wrap;html=1;" vertex="1" parent="1">
          <mxGeometry x="340" y="160" width="80" height="40" as="geometry" />
        </mxCell>
        <mxCell id="B_8D_iWX-V5mQrey9REb-14" value="" style="endArrow=classic;html=1;rounded=0;exitX=0.5;exitY=1;exitDx=0;exitDy=0;entryX=0;entryY=0.5;entryDx=0;entryDy=0;" edge="1" parent="1" source="B_8D_iWX-V5mQrey9REb-2" target="B_8D_iWX-V5mQrey9REb-6">
          <mxGeometry width="50" height="50" relative="1" as="geometry">
            <mxPoint x="120" y="150" as="sourcePoint" />
            <mxPoint x="150" y="260" as="targetPoint" />
            <Array as="points">
              <mxPoint x="150" y="150" />
              <mxPoint x="150" y="180" />
            </Array>
          </mxGeometry>
        </mxCell>
        <mxCell id="B_8D_iWX-V5mQrey9REb-15" value="=" style="ellipse;whiteSpace=wrap;html=1;aspect=fixed;" vertex="1" parent="1">
          <mxGeometry x="110" y="150" width="30" height="30" as="geometry" />
        </mxCell>
        <mxCell id="B_8D_iWX-V5mQrey9REb-16" value="" style="endArrow=classic;html=1;rounded=0;exitX=0.5;exitY=1;exitDx=0;exitDy=0;" edge="1" parent="1" source="B_8D_iWX-V5mQrey9REb-17">
          <mxGeometry width="50" height="50" relative="1" as="geometry">
            <mxPoint x="390" y="360" as="sourcePoint" />
            <mxPoint x="380" y="270" as="targetPoint" />
          </mxGeometry>
        </mxCell>
        <mxCell id="B_8D_iWX-V5mQrey9REb-17" value="+" style="ellipse;whiteSpace=wrap;html=1;aspect=fixed;" vertex="1" parent="1">
          <mxGeometry x="365" y="220" width="30" height="30" as="geometry" />
        </mxCell>
        <mxCell id="B_8D_iWX-V5mQrey9REb-19" value="" style="endArrow=none;html=1;rounded=0;entryX=0.5;entryY=1;entryDx=0;entryDy=0;exitX=0.5;exitY=0;exitDx=0;exitDy=0;" edge="1" parent="1" source="B_8D_iWX-V5mQrey9REb-17" target="B_8D_iWX-V5mQrey9REb-13">
          <mxGeometry width="50" height="50" relative="1" as="geometry">
            <mxPoint x="380" y="210" as="sourcePoint" />
            <mxPoint x="440" y="310" as="targetPoint" />
          </mxGeometry>
        </mxCell>
        <mxCell id="B_8D_iWX-V5mQrey9REb-20" value="" style="endArrow=none;html=1;rounded=0;entryX=0;entryY=0.5;entryDx=0;entryDy=0;" edge="1" parent="1" target="B_8D_iWX-V5mQrey9REb-17">
          <mxGeometry width="50" height="50" relative="1" as="geometry">
            <mxPoint x="300" y="235" as="sourcePoint" />
            <mxPoint x="440" y="230" as="targetPoint" />
          </mxGeometry>
        </mxCell>
        <mxCell id="B_8D_iWX-V5mQrey9REb-21" value="Vaddr" style="text;html=1;strokeColor=none;fillColor=none;align=center;verticalAlign=middle;whiteSpace=wrap;rounded=0;" vertex="1" parent="1">
          <mxGeometry x="230" y="220" width="60" height="30" as="geometry" />
        </mxCell>
        <mxCell id="B_8D_iWX-V5mQrey9REb-22" value="PAddr" style="text;html=1;strokeColor=none;fillColor=none;align=center;verticalAlign=middle;whiteSpace=wrap;rounded=0;" vertex="1" parent="1">
          <mxGeometry x="350" y="280" width="60" height="30" as="geometry" />
        </mxCell>
      </root>
    </mxGraphModel>
  </diagram>
</mxfile>
